#N canvas 217 22 416 480 10;
#N canvas 0 23 963 378 sliderctrl 0;
#X obj 52 54 vsl 15 128 0 127 0 0 empty empty empty 0 -9 0 10 -4160
-228856 -1 0 1;
#X msg 48 203 \$1 0;
#X obj 48 284 tabwrite \$0-val1;
#X obj 67 54 vsl 15 128 0 127 0 0 empty empty empty 0 -9 0 10 -203904
-1 -1 0 1;
#X msg 81 203 \$1 1;
#X obj 82 54 vsl 15 128 0 127 0 0 empty empty empty 0 -9 0 10 -203904
-1 -1 0 1;
#X obj 97 54 vsl 15 128 0 127 0 0 empty empty empty 0 -9 0 10 -203904
-1 -1 0 1;
#X msg 114 203 \$1 2;
#X msg 147 203 \$1 3;
#X obj 112 54 vsl 15 128 0 127 0 0 empty empty empty 0 -9 0 10 -4160
-228856 -1 0 1;
#X obj 127 54 vsl 15 128 0 127 0 0 empty empty empty 0 -9 0 10 -203904
-1 -1 0 1;
#X obj 142 54 vsl 15 128 0 127 0 0 empty empty empty 0 -9 0 10 -203904
-1 -1 0 1;
#X obj 157 54 vsl 15 128 0 127 0 0 empty empty empty 0 -9 0 10 -203904
-1 -1 0 1;
#X msg 180 203 \$1 4;
#X msg 213 203 \$1 5;
#X msg 246 203 \$1 6;
#X msg 279 203 \$1 7;
#X obj 220 285 array define \$0-val1 16;
#X obj 172 54 vsl 15 128 0 127 0 0 empty empty empty 0 -9 0 10 -4160
-228856 -1 0 1;
#X obj 187 54 vsl 15 128 0 127 0 0 empty empty empty 0 -9 0 10 -203904
-1 -1 0 1;
#X obj 202 54 vsl 15 128 0 127 0 0 empty empty empty 0 -9 0 10 -203904
-1 -1 0 1;
#X obj 217 54 vsl 15 128 0 127 0 0 empty empty empty 0 -9 0 10 -203904
-1 -1 0 1;
#X obj 232 54 vsl 15 128 0 127 0 0 empty empty empty 0 -9 0 10 -4160
-228856 -1 0 1;
#X obj 247 54 vsl 15 128 0 127 0 0 empty empty empty 0 -9 0 10 -203904
-1 -1 0 1;
#X obj 262 54 vsl 15 128 0 127 0 0 empty empty empty 0 -9 0 10 -203904
-1 -1 0 1;
#X obj 277 54 vsl 15 128 0 127 0 0 empty empty empty 0 -9 0 10 -203904
-1 -1 0 1;
#X msg 315 203 \$1 8;
#X msg 348 203 \$1 9;
#X msg 382 203 \$1 10;
#X msg 421 203 \$1 11;
#X msg 460 203 \$1 12;
#X msg 499 203 \$1 13;
#X msg 537 203 \$1 14;
#X msg 570 203 \$1 15;
#X obj 52 6 inlet;
#X obj 52 27 route 0 1 2 3 4 5 6 7 8 9 10 11 12 13 14 15;
#X connect 0 0 1 0;
#X connect 1 0 2 0;
#X connect 3 0 4 0;
#X connect 4 0 2 0;
#X connect 5 0 7 0;
#X connect 6 0 8 0;
#X connect 7 0 2 0;
#X connect 8 0 2 0;
#X connect 9 0 13 0;
#X connect 10 0 14 0;
#X connect 11 0 15 0;
#X connect 12 0 16 0;
#X connect 13 0 2 0;
#X connect 14 0 2 0;
#X connect 15 0 2 0;
#X connect 16 0 2 0;
#X connect 18 0 26 0;
#X connect 19 0 27 0;
#X connect 20 0 28 0;
#X connect 21 0 29 0;
#X connect 22 0 30 0;
#X connect 23 0 31 0;
#X connect 24 0 32 0;
#X connect 25 0 33 0;
#X connect 26 0 2 0;
#X connect 27 0 2 0;
#X connect 28 0 2 0;
#X connect 29 0 2 0;
#X connect 30 0 2 0;
#X connect 31 0 2 0;
#X connect 32 0 2 0;
#X connect 33 0 2 0;
#X connect 34 0 35 0;
#X connect 35 0 0 0;
#X connect 35 1 3 0;
#X connect 35 2 5 0;
#X connect 35 3 6 0;
#X connect 35 4 9 0;
#X connect 35 5 10 0;
#X connect 35 6 11 0;
#X connect 35 7 12 0;
#X connect 35 8 18 0;
#X connect 35 9 19 0;
#X connect 35 10 20 0;
#X connect 35 11 21 0;
#X connect 35 12 22 0;
#X connect 35 13 23 0;
#X connect 35 14 24 0;
#X connect 35 15 25 0;
#X coords 0 -1 1 1 245 137 2 50 50;
#X restore 8 52 pd sliderctrl;
#X obj 10 17 hradio 15 1 0 16 empty \$0-current empty 0 -8 0 10 -262144
-1 -1 7;
#N canvas 0 23 450 300 mutes 0;
#X obj 292 230 array define \$0-mutes 16;
#X obj 102 114 tgl 15 0 empty empty empty 17 7 0 10 -262144 -1 -1 0
1;
#X msg 102 134 \$1 0;
#X obj 117 114 tgl 15 0 empty empty empty 17 7 0 10 -262144 -1 -1 0
1;
#X msg 117 154 \$1 1;
#X obj 132 114 tgl 15 0 empty empty empty 17 7 0 10 -262144 -1 -1 0
1;
#X obj 147 114 tgl 15 0 empty empty empty 17 7 0 10 -262144 -1 -1 0
1;
#X msg 132 134 \$1 2;
#X msg 147 154 \$1 3;
#X obj 162 114 tgl 15 0 empty empty empty 17 7 0 10 -262144 -1 -1 0
1;
#X obj 177 114 tgl 15 0 empty empty empty 17 7 0 10 -262144 -1 -1 0
1;
#X obj 192 114 tgl 15 0 empty empty empty 17 7 0 10 -262144 -1 -1 0
1;
#X obj 207 114 tgl 15 0 empty empty empty 17 7 0 10 -262144 -1 -1 0
1;
#X msg 162 134 \$1 4;
#X msg 177 154 \$1 5;
#X msg 192 134 \$1 6;
#X msg 207 154 \$1 7;
#X obj 222 114 tgl 15 0 empty empty empty 17 7 0 10 -262144 -1 -1 0
1;
#X obj 237 114 tgl 15 0 empty empty empty 17 7 0 10 -262144 -1 -1 0
1;
#X obj 252 114 tgl 15 0 empty empty empty 17 7 0 10 -262144 -1 -1 0
1;
#X obj 267 114 tgl 15 0 empty empty empty 17 7 0 10 -262144 -1 -1 0
1;
#X obj 282 114 tgl 15 0 empty empty empty 17 7 0 10 -262144 -1 -1 0
1;
#X obj 297 114 tgl 15 0 empty empty empty 17 7 0 10 -262144 -1 -1 0
1;
#X obj 312 114 tgl 15 0 empty empty empty 17 7 0 10 -262144 -1 -1 0
1;
#X obj 327 114 tgl 15 0 empty empty empty 17 7 0 10 -262144 -1 -1 0
1;
#X msg 222 134 \$1 8;
#X msg 237 154 \$1 9;
#X msg 252 134 \$1 10;
#X msg 267 154 \$1 11;
#X msg 292 134 \$1 12;
#X msg 307 154 \$1 13;
#X msg 332 134 \$1 14;
#X msg 347 154 \$1 15;
#X obj 99 223 tabwrite \$0-mutes;
#X connect 1 0 2 0;
#X connect 2 0 33 0;
#X connect 3 0 4 0;
#X connect 4 0 33 0;
#X connect 5 0 7 0;
#X connect 6 0 8 0;
#X connect 7 0 33 0;
#X connect 8 0 33 0;
#X connect 9 0 13 0;
#X connect 10 0 14 0;
#X connect 11 0 15 0;
#X connect 12 0 16 0;
#X connect 13 0 33 0;
#X connect 14 0 33 0;
#X connect 15 0 33 0;
#X connect 16 0 33 0;
#X connect 17 0 25 0;
#X connect 18 0 26 0;
#X connect 19 0 27 0;
#X connect 20 0 28 0;
#X connect 21 0 29 0;
#X connect 22 0 30 0;
#X connect 23 0 31 0;
#X connect 24 0 32 0;
#X connect 25 0 33 0;
#X connect 26 0 33 0;
#X connect 27 0 33 0;
#X connect 28 0 33 0;
#X connect 29 0 33 0;
#X connect 30 0 33 0;
#X connect 31 0 33 0;
#X connect 32 0 33 0;
#X coords 0 -1 1 1 245 30 1 100 100;
#X restore 8 377 pd mutes;
#N canvas 701 23 450 300 skip 0;
#X msg 102 134 \$1 0;
#X obj 117 114 tgl 15 0 empty empty empty 17 7 0 10 -262144 -1 -1 0
1;
#X msg 117 154 \$1 1;
#X obj 132 114 tgl 15 0 empty empty empty 17 7 0 10 -262144 -1 -1 0
1;
#X obj 147 114 tgl 15 0 empty empty empty 17 7 0 10 -262144 -1 -1 0
1;
#X msg 132 134 \$1 2;
#X msg 147 154 \$1 3;
#X obj 162 114 tgl 15 0 empty empty empty 17 7 0 10 -262144 -1 -1 0
1;
#X obj 177 114 tgl 15 0 empty empty empty 17 7 0 10 -262144 -1 -1 0
1;
#X obj 192 114 tgl 15 0 empty empty empty 17 7 0 10 -262144 -1 -1 0
1;
#X obj 207 114 tgl 15 0 empty empty empty 17 7 0 10 -262144 -1 -1 0
1;
#X msg 162 134 \$1 4;
#X msg 177 154 \$1 5;
#X msg 192 134 \$1 6;
#X msg 207 154 \$1 7;
#X obj 222 114 tgl 15 0 empty empty empty 17 7 0 10 -262144 -1 -1 0
1;
#X obj 237 114 tgl 15 0 empty empty empty 17 7 0 10 -262144 -1 -1 0
1;
#X obj 252 114 tgl 15 0 empty empty empty 17 7 0 10 -262144 -1 -1 0
1;
#X obj 267 114 tgl 15 0 empty empty empty 17 7 0 10 -262144 -1 -1 0
1;
#X obj 282 114 tgl 15 0 empty empty empty 17 7 0 10 -262144 -1 -1 0
1;
#X obj 297 114 tgl 15 0 empty empty empty 17 7 0 10 -262144 -1 -1 0
1;
#X obj 312 114 tgl 15 0 empty empty empty 17 7 0 10 -262144 -1 -1 0
1;
#X obj 327 114 tgl 15 0 empty empty empty 17 7 0 10 -262144 -1 -1 0
1;
#X msg 222 134 \$1 8;
#X msg 237 154 \$1 9;
#X msg 252 134 \$1 10;
#X msg 267 154 \$1 11;
#X msg 292 134 \$1 12;
#X msg 307 154 \$1 13;
#X msg 332 134 \$1 14;
#X msg 347 154 \$1 15;
#X obj 99 223 tabwrite \$0-skips;
#X obj 292 230 array define \$0-skips 16;
#X obj 102 114 tgl 15 0 empty empty empty 17 7 0 10 -262144 -1 -1 0
1;
#X connect 0 0 31 0;
#X connect 1 0 2 0;
#X connect 2 0 31 0;
#X connect 3 0 5 0;
#X connect 4 0 6 0;
#X connect 5 0 31 0;
#X connect 6 0 31 0;
#X connect 7 0 11 0;
#X connect 8 0 12 0;
#X connect 9 0 13 0;
#X connect 10 0 14 0;
#X connect 11 0 31 0;
#X connect 12 0 31 0;
#X connect 13 0 31 0;
#X connect 14 0 31 0;
#X connect 15 0 23 0;
#X connect 16 0 24 0;
#X connect 17 0 25 0;
#X connect 18 0 26 0;
#X connect 19 0 27 0;
#X connect 20 0 28 0;
#X connect 21 0 29 0;
#X connect 22 0 30 0;
#X connect 23 0 31 0;
#X connect 24 0 31 0;
#X connect 25 0 31 0;
#X connect 26 0 31 0;
#X connect 27 0 31 0;
#X connect 28 0 31 0;
#X connect 29 0 31 0;
#X connect 30 0 31 0;
#X connect 33 0 0 0;
#X coords 0 -1 1 1 245 30 1 100 100;
#X restore 8 407 pd skip;
#N canvas 0 23 450 300 reverse 0;
#X msg 102 134 \$1 0;
#X obj 117 114 tgl 15 0 empty empty empty 17 7 0 10 -262144 -1 -1 0
1;
#X msg 117 154 \$1 1;
#X obj 132 114 tgl 15 0 empty empty empty 17 7 0 10 -262144 -1 -1 0
1;
#X obj 147 114 tgl 15 0 empty empty empty 17 7 0 10 -262144 -1 -1 0
1;
#X msg 132 134 \$1 2;
#X msg 147 154 \$1 3;
#X obj 162 114 tgl 15 0 empty empty empty 17 7 0 10 -262144 -1 -1 0
1;
#X obj 177 114 tgl 15 0 empty empty empty 17 7 0 10 -262144 -1 -1 0
1;
#X obj 192 114 tgl 15 0 empty empty empty 17 7 0 10 -262144 -1 -1 0
1;
#X obj 207 114 tgl 15 0 empty empty empty 17 7 0 10 -262144 -1 -1 0
1;
#X msg 162 134 \$1 4;
#X msg 177 154 \$1 5;
#X msg 192 134 \$1 6;
#X msg 207 154 \$1 7;
#X obj 222 114 tgl 15 0 empty empty empty 17 7 0 10 -262144 -1 -1 0
1;
#X obj 237 114 tgl 15 0 empty empty empty 17 7 0 10 -262144 -1 -1 0
1;
#X obj 252 114 tgl 15 0 empty empty empty 17 7 0 10 -262144 -1 -1 0
1;
#X obj 267 114 tgl 15 0 empty empty empty 17 7 0 10 -262144 -1 -1 0
1;
#X obj 282 114 tgl 15 0 empty empty empty 17 7 0 10 -262144 -1 -1 0
1;
#X obj 297 114 tgl 15 0 empty empty empty 17 7 0 10 -262144 -1 -1 0
1;
#X obj 312 114 tgl 15 0 empty empty empty 17 7 0 10 -262144 -1 -1 0
1;
#X obj 327 114 tgl 15 0 empty empty empty 17 7 0 10 -262144 -1 -1 0
1;
#X msg 222 134 \$1 8;
#X msg 237 154 \$1 9;
#X msg 252 134 \$1 10;
#X msg 267 154 \$1 11;
#X msg 292 134 \$1 12;
#X msg 307 154 \$1 13;
#X msg 332 134 \$1 14;
#X msg 347 154 \$1 15;
#X obj 102 114 tgl 15 0 empty empty empty 17 7 0 10 -262144 -1 -1 0
1;
#X obj 99 223 tabwrite \$0-reverse;
#X obj 292 230 array define \$0-reverse 16;
#X connect 0 0 32 0;
#X connect 1 0 2 0;
#X connect 2 0 32 0;
#X connect 3 0 5 0;
#X connect 4 0 6 0;
#X connect 5 0 32 0;
#X connect 6 0 32 0;
#X connect 7 0 11 0;
#X connect 8 0 12 0;
#X connect 9 0 13 0;
#X connect 10 0 14 0;
#X connect 11 0 32 0;
#X connect 12 0 32 0;
#X connect 13 0 32 0;
#X connect 14 0 32 0;
#X connect 15 0 23 0;
#X connect 16 0 24 0;
#X connect 17 0 25 0;
#X connect 18 0 26 0;
#X connect 19 0 27 0;
#X connect 20 0 28 0;
#X connect 21 0 29 0;
#X connect 22 0 30 0;
#X connect 23 0 32 0;
#X connect 24 0 32 0;
#X connect 25 0 32 0;
#X connect 26 0 32 0;
#X connect 27 0 32 0;
#X connect 28 0 32 0;
#X connect 29 0 32 0;
#X connect 30 0 32 0;
#X connect 31 0 0 0;
#X coords 0 -1 1 1 245 30 1 100 100;
#X restore 8 437 pd reverse;
#N canvas 798 22 612 850 guts 1;
#X obj 143 351 f 0;
#X obj 143 452 t f f;
#X obj 143 635 spigot 1;
#X obj 188 475 tabread \$0-mutes;
#X obj 188 496 == 0;
#X msg 143 324 bang;
#X obj 143 534 t f f;
#X obj 143 576 t f f;
#X obj 143 675 t f f;
#X obj 143 757 pack f f;
#X obj 143 778 s \$0-output;
#N canvas 0 23 450 300 init 0;
#X obj 64 33 loadbang;
#X obj 64 84 f \$0;
#X msg 130 35 bang;
#X msg 64 105 \; \$1-direction 1 \; \$1-current 0 \; \$1-output-note
0 \;;
#X connect 0 0 1 0;
#X connect 1 0 3 0;
#X connect 2 0 1 0;
#X restore 339 293 pd init;
#X obj 205 351 r \$0-next;
#N canvas 313 304 694 506 skip-logic 1;
#X obj 184 24 inlet;
#X obj 211 444 array random \$0-skips;
#X obj 184 130 tabread \$0-skips;
#X obj 184 152 sel 1 0;
#X obj 276 301 f;
#X obj 276 322 + 1;
#X obj 310 301 r \$0-direction;
#X obj 211 465 s \$0-next;
#X obj 184 107 t f f;
#X obj 184 173 v \$0-just-skipped;
#X obj 184 194 sel 0 1;
#X obj 184 275 t b b;
#X msg 37 315 1;
#X obj 37 336 s \$0-just-skipped;
#X obj 276 403 t f b;
#X msg 322 399 0;
#X obj 322 420 s \$0-just-skipped;
#X text 294 129 if skip switch is on this step...;
#X text 254 152 if not trigger regular step;
#X text 300 173 if we just did a skip in the last step...;
#X text 238 197 if not skip to a random step with the skip switch on
;
#X text 28 359 if skip set just-skipped state to 1;
#X text 438 421 if regular step set just-skipped to 0;
#X obj 184 215 random 127;
#X obj 184 236 <;
#X obj 184 257 sel 1 0;
#X obj 286 244 r \$0-skip-prob;
#N canvas 59 345 800 420 do-start-end 1;
#X obj 71 35 inlet;
#X obj 245 49 r \$0-first;
#X obj 332 47 r \$0-last;
#X obj 71 106 spigot 1;
#X obj 127 27 r \$0-direction;
#X obj 117 78 == 1;
#X obj 197 81 == -1;
#X obj 152 107 spigot 0;
#X obj 215 278 outlet;
#X obj 71 187 expr if($f1 == $f3 + 1 \, $f2 \, $f1);
#X obj 304 188 expr if($f1 == $f2 - 1 \, $f3 \, $f1);
#X obj 215 231 expr if($f1 < 0 \, 15 \, $f1);
#X obj 215 252 expr if($f1 > 15 \, 0 \, $f1);
#X floatatom 242 95 5 0 0 0 - - -, f 5;
#X floatatom 400 76 5 0 0 0 - - -, f 5;
#X connect 0 0 3 0;
#X connect 0 0 7 0;
#X connect 1 0 9 1;
#X connect 1 0 10 1;
#X connect 1 0 13 0;
#X connect 2 0 9 2;
#X connect 2 0 10 2;
#X connect 2 0 14 0;
#X connect 3 0 9 0;
#X connect 4 0 5 0;
#X connect 4 0 6 0;
#X connect 5 0 3 1;
#X connect 6 0 7 1;
#X connect 7 0 10 0;
#X connect 9 0 11 0;
#X connect 10 0 11 0;
#X connect 11 0 12 0;
#X connect 12 0 8 0;
#X restore 276 358 pd do-start-end;
#X connect 0 0 8 0;
#X connect 1 0 7 0;
#X connect 2 0 3 0;
#X connect 3 0 9 0;
#X connect 3 1 4 0;
#X connect 4 0 5 0;
#X connect 5 0 27 0;
#X connect 6 0 5 1;
#X connect 8 0 2 0;
#X connect 8 1 4 1;
#X connect 9 0 10 0;
#X connect 10 0 23 0;
#X connect 10 1 4 0;
#X connect 11 0 12 0;
#X connect 11 1 1 0;
#X connect 12 0 13 0;
#X connect 14 0 7 0;
#X connect 14 1 15 0;
#X connect 15 0 16 0;
#X connect 23 0 24 0;
#X connect 24 0 25 0;
#X connect 25 0 11 0;
#X connect 25 1 4 0;
#X connect 26 0 24 1;
#X connect 27 0 14 0;
#X restore 214 600 pd skip-logic;
#N canvas 558 170 450 300 reverse-logic 0;
#X obj 47 27 inlet;
#X obj 47 68 tabread \$0-reverse;
#X obj 47 89 sel 1;
#X obj 47 216 * -1;
#X obj 47 237 s \$0-direction;
#X obj 47 195 v \$0-direction;
#X obj 47 109 t b b;
#X obj 47 130 random 127;
#X obj 47 151 <;
#X obj 47 172 sel 1;
#X obj 123 147 r \$0-rev-prob;
#X connect 0 0 1 0;
#X connect 1 0 2 0;
#X connect 2 0 6 0;
#X connect 3 0 4 0;
#X connect 5 0 3 0;
#X connect 6 0 7 0;
#X connect 7 0 8 0;
#X connect 8 0 9 0;
#X connect 9 0 5 0;
#X connect 10 0 8 1;
#X restore 212 561 pd reverse-logic;
#N canvas 0 22 450 300 credits 0;
#X text 51 140 inspiration from Doepfer;
#X text 51 111 based on the unfinished Max patch;
#X text 51 53 16 step state machine;
#X text 51 82 for Kristoffer Age Bredahl (DK) by William Kurtis Chang
(TW/USA) in 2018;
#X restore 333 341 pd credits;
#X obj 57 424 s \$0-current;
#X msg 190 324 0;
#X obj 143 736 tabread \$0-val1;
#X obj 242 736 tabread \$0-val2;
#X obj 107 121 tgl 15 0 empty empty on 17 7 0 10 -262144 -1 -1 1 1
;
#X obj 107 216 metro 500;
#X obj 177 142 nbx 4 15 -1e+37 1e+37 0 0 empty empty beat 0 -8 0 10
-262144 -1 -1 0 256;
#X obj 237 174 r \$0-direction;
#X obj 237 195 == -1;
#X obj 107 143 tgl 15 0 empty empty reverse 17 7 0 10 -262144 -1 -1
0 1;
#X msg 237 216 set \$1;
#X obj 198 267 s \$0-direction;
#X obj 198 245 expr if($f1 == 1 \, -1 \, 1);
#X connect 0 0 1 0;
#X connect 1 0 6 0;
#X connect 1 0 16 0;
#X connect 1 1 3 0;
#X connect 2 0 8 0;
#X connect 3 0 4 0;
#X connect 4 0 2 1;
#X connect 5 0 0 0;
#X connect 6 0 7 0;
#X connect 6 1 14 0;
#X connect 7 0 2 0;
#X connect 7 1 13 0;
#X connect 8 0 18 0;
#X connect 8 1 19 0;
#X connect 9 0 10 0;
#X connect 12 0 0 1;
#X connect 17 0 0 1;
#X connect 18 0 9 0;
#X connect 19 0 9 1;
#X connect 20 0 21 0;
#X connect 21 0 5 0;
#X connect 22 0 21 1;
#X connect 23 0 24 0;
#X connect 24 0 26 0;
#X connect 25 0 28 0;
#X connect 26 0 25 0;
#X connect 28 0 27 0;
#X coords 0 -1 1 1 150 65 1 100 100;
#X restore 257 17 pd guts;
#N canvas 306 220 963 378 sliderctrl 0;
#X obj 52 54 vsl 15 128 0 127 0 0 empty empty empty 0 -9 0 10 -159808
-228856 -1 0 1;
#X msg 48 203 \$1 0;
#X obj 67 54 vsl 15 128 0 127 0 0 empty empty empty 0 -9 0 10 -232576
-1 -1 0 1;
#X msg 81 203 \$1 1;
#X obj 82 54 vsl 15 128 0 127 0 0 empty empty empty 0 -9 0 10 -232576
-1 -1 0 1;
#X obj 97 54 vsl 15 128 0 127 0 0 empty empty empty 0 -9 0 10 -232576
-1 -1 0 1;
#X msg 114 203 \$1 2;
#X msg 147 203 \$1 3;
#X obj 112 54 vsl 15 128 0 127 0 0 empty empty empty 0 -9 0 10 -159808
-228856 -1 0 1;
#X obj 127 54 vsl 15 128 0 127 0 0 empty empty empty 0 -9 0 10 -232576
-1 -1 0 1;
#X obj 142 54 vsl 15 128 0 127 0 0 empty empty empty 0 -9 0 10 -232576
-1 -1 0 1;
#X obj 157 54 vsl 15 128 0 127 0 0 empty empty empty 0 -9 0 10 -232576
-1 -1 0 1;
#X msg 180 203 \$1 4;
#X msg 213 203 \$1 5;
#X msg 246 203 \$1 6;
#X msg 279 203 \$1 7;
#X obj 172 54 vsl 15 128 0 127 0 0 empty empty empty 0 -9 0 10 -159808
-228856 -1 0 1;
#X obj 187 54 vsl 15 128 0 127 0 0 empty empty empty 0 -9 0 10 -232576
-1 -1 0 1;
#X obj 202 54 vsl 15 128 0 127 0 0 empty empty empty 0 -9 0 10 -232576
-1 -1 0 1;
#X obj 217 54 vsl 15 128 0 127 0 0 empty empty empty 0 -9 0 10 -232576
-1 -1 0 1;
#X obj 232 54 vsl 15 128 0 127 0 0 empty empty empty 0 -9 0 10 -159808
-228856 -1 0 1;
#X obj 247 54 vsl 15 128 0 127 0 0 empty empty empty 0 -9 0 10 -232576
-1 -1 0 1;
#X obj 262 54 vsl 15 128 0 127 0 0 empty empty empty 0 -9 0 10 -232576
-1 -1 0 1;
#X obj 277 54 vsl 15 128 0 127 0 0 empty empty empty 0 -9 0 10 -232576
-1 -1 0 1;
#X msg 314 203 \$1 8;
#X msg 347 203 \$1 9;
#X msg 381 203 \$1 10;
#X msg 420 203 \$1 11;
#X msg 459 203 \$1 12;
#X msg 498 203 \$1 13;
#X msg 536 203 \$1 14;
#X msg 569 203 \$1 15;
#X obj 52 6 inlet;
#X obj 52 27 route 0 1 2 3 4 5 6 7 8 9 10 11 12 13 14 15;
#X obj 48 284 tabwrite \$0-val2;
#X obj 542 91 array define \$0-val2 16;
#X connect 0 0 1 0;
#X connect 1 0 34 0;
#X connect 2 0 3 0;
#X connect 3 0 34 0;
#X connect 4 0 6 0;
#X connect 5 0 7 0;
#X connect 6 0 34 0;
#X connect 7 0 34 0;
#X connect 8 0 12 0;
#X connect 9 0 13 0;
#X connect 10 0 14 0;
#X connect 11 0 15 0;
#X connect 12 0 34 0;
#X connect 13 0 34 0;
#X connect 14 0 34 0;
#X connect 15 0 34 0;
#X connect 16 0 24 0;
#X connect 17 0 25 0;
#X connect 18 0 26 0;
#X connect 19 0 27 0;
#X connect 20 0 28 0;
#X connect 21 0 29 0;
#X connect 22 0 30 0;
#X connect 23 0 31 0;
#X connect 24 0 34 0;
#X connect 25 0 34 0;
#X connect 26 0 34 0;
#X connect 27 0 34 0;
#X connect 28 0 34 0;
#X connect 29 0 34 0;
#X connect 30 0 34 0;
#X connect 31 0 34 0;
#X connect 32 0 33 0;
#X connect 33 0 0 0;
#X connect 33 1 2 0;
#X connect 33 2 4 0;
#X connect 33 3 5 0;
#X connect 33 4 8 0;
#X connect 33 5 9 0;
#X connect 33 6 10 0;
#X connect 33 7 11 0;
#X connect 33 8 16 0;
#X connect 33 9 17 0;
#X connect 33 10 18 0;
#X connect 33 11 19 0;
#X connect 33 12 20 0;
#X connect 33 13 21 0;
#X connect 33 14 22 0;
#X connect 33 15 23 0;
#X coords 0 -1 1 1 245 137 2 50 50;
#X restore 8 191 pd sliderctrl;
#N canvas 706 58 504 396 output 0;
#X obj 66 28 r \$0-output;
#X obj 93 78 v \$0-output-note;
#X obj 66 108 list prepend;
#X text 199 79 default output CCs \; alternatively output note;
#X obj 66 129 route 0 1;
#N canvas 0 23 450 300 output-cc 0;
#X obj 55 102 list split 1;
#X obj 55 133 t f b;
#X obj 82 154 v \$0-cc1;
#X obj 156 134 t f b;
#X obj 183 155 v \$0-cc2;
#X obj 55 259 ctlout;
#X obj 55 175 list append;
#X obj 156 176 list append;
#X obj 55 16 inlet;
#X obj 150 234 r \$0-midichannel;
#X obj 82 71 s \$0-display-output;
#X obj 55 37 t l l;
#X connect 0 0 1 0;
#X connect 0 1 3 0;
#X connect 1 0 6 0;
#X connect 1 1 2 0;
#X connect 2 0 6 1;
#X connect 3 0 7 0;
#X connect 3 1 4 0;
#X connect 4 0 7 1;
#X connect 6 0 5 0;
#X connect 7 0 5 0;
#X connect 8 0 11 0;
#X connect 9 0 5 2;
#X connect 11 0 0 0;
#X connect 11 1 10 0;
#X restore 66 298 pd output-cc;
#N canvas 82 22 598 671 output-note 0;
#X obj 163 17 inlet;
#X obj 163 338 noteout;
#X obj 325 284 r \$0-midichannel;
#X obj 163 288 makenote 100 100;
#X obj 357 16 r \$0-notelength;
#X obj 267 16 r \$0-note-vel;
#X obj 342 234 *;
#X obj 230 163 list prepend;
#X obj 230 184 route 1;
#X obj 269 205 t b;
#X msg 269 226 1;
#X obj 230 205 / 127;
#N canvas 698 125 712 461 quantize-pitch 0;
#X obj 226 67 r \$0-toggle-scale;
#X obj 104 47 inlet;
#X obj 104 132 spigot 1;
#X obj 119 107 == 0;
#X obj 104 343 outlet;
#X obj 181 133 spigot 0;
#X obj 341 66 r \$0-scale-intervals;
#X obj 341 87 t l l;
#X obj 368 112 list length;
#X obj 181 175 int;
#X obj 181 226 list store;
#X obj 181 301 list split;
#X obj 181 196 t b f;
#X msg 209 325 \$1;
#X obj 181 154 expr $f1 / 127 * ($f2 - 1);
#X connect 0 0 3 0;
#X connect 0 0 5 1;
#X connect 1 0 2 0;
#X connect 1 0 5 0;
#X connect 2 0 4 0;
#X connect 3 0 2 1;
#X connect 5 0 14 0;
#X connect 6 0 7 0;
#X connect 7 0 10 1;
#X connect 7 1 8 0;
#X connect 8 0 14 1;
#X connect 9 0 12 0;
#X connect 10 0 11 0;
#X connect 11 1 13 0;
#X connect 12 0 10 0;
#X connect 12 1 11 1;
#X connect 13 0 4 0;
#X connect 14 0 9 0;
#X restore 163 134 pd quantize-pitch;
#X obj 163 94 unpack f f;
#X obj 219 115 t f f;
#X obj 163 214 pack f f;
#X obj 35 239 s \$0-display-output;
#X obj 78 139 r \$0-root;
#X obj 163 182 + 0;
#X connect 0 0 13 0;
#X connect 2 0 1 2;
#X connect 3 0 1 0;
#X connect 3 1 1 1;
#X connect 4 0 6 1;
#X connect 5 0 7 1;
#X connect 6 0 3 2;
#X connect 7 0 8 0;
#X connect 8 0 11 0;
#X connect 8 1 9 0;
#X connect 9 0 10 0;
#X connect 10 0 6 0;
#X connect 11 0 6 0;
#X connect 12 0 18 0;
#X connect 13 0 12 0;
#X connect 13 1 14 0;
#X connect 14 0 15 1;
#X connect 14 1 7 0;
#X connect 15 0 16 0;
#X connect 15 0 3 0;
#X connect 17 0 18 1;
#X connect 18 0 15 0;
#X restore 178 297 pd output-note;
#X obj 206 168 tgl 15 0 empty empty note 17 7 0 10 -262144 -1 -1 0
1;
#X floatatom 269 168 5 0 0 1 channel - -, f 5;
#X obj 363 190 s \$0-midichannel;
#X obj 201 194 cnv 15 73 75 empty empty one 20 12 0 14 -203904 -66577
0;
#X floatatom 206 219 5 0 0 1 value - -, f 5;
#X obj 275 194 cnv 15 73 75 empty empty two 20 12 0 14 -232576 -66577
0;
#X floatatom 279 219 5 0 0 1 value - -, f 5;
#X obj 274 292 s \$0-output-note;
#X floatatom 206 242 5 0 0 1 CCno - -, f 5;
#X floatatom 279 242 5 0 0 1 CCno - -, f 5;
#X obj 66 55 t l b;
#X obj 374 93 r \$0-display-output;
#X obj 374 114 unpack f f;
#X connect 0 0 17 0;
#X connect 1 0 2 1;
#X connect 2 0 4 0;
#X connect 4 0 5 0;
#X connect 4 1 6 0;
#X connect 7 0 14 0;
#X connect 8 0 9 0;
#X connect 17 0 2 0;
#X connect 17 1 1 0;
#X connect 18 0 19 0;
#X connect 19 0 11 0;
#X connect 19 1 13 0;
#X coords 0 -1 1 1 150 120 1 200 150;
#X restore 257 86 pd output;
#X obj 10 34 hradio 15 1 0 16 \$0-next empty empty 245 7 0 10 -204786
-260097 -1 14;
#N canvas 0 22 450 455 probs 0;
#X obj 41 303 s \$0-skip-prob;
#X obj 187 303 s \$0-rev-prob;
#X obj 111 135 hsl 128 15 0 127 0 0 empty empty skip -2 -8 0 10 -262144
-1 -1 0 1;
#X obj 111 168 hsl 128 15 0 127 0 0 empty empty reverse -2 -8 0 10
-262144 -1 -1 0 1;
#X connect 2 0 0 0;
#X connect 3 0 1 0;
#X coords 0 -1 1 1 150 90 1 100 100;
#X restore 257 329 pd probs;
#N canvas 246 208 587 594 noteset 0;
#X floatatom 179 110 5 0 0 0 - - -, f 5;
#X obj 283 259 expr $f1 / 127 * 1000;
#X obj 215 110 tgl 15 0 empty empty vel 17 7 0 10 -262144 -1 -1 0 1
;
#X obj 283 129 s \$0-note-vel;
#X obj 283 283 s \$0-notelength;
#X floatatom 209 148 5 0 0 0 root - -, f 5;
#X obj 35 26 loadbang;
#X msg 35 47 60;
#X obj 354 69 text define \$0-scales;
#X msg 354 47 read scales.txt;
#X obj 321 13 t b b;
#X obj 111 129 hsl 128 15 0 127 0 0 empty empty length -2 -8 0 10 -262144
-1 -1 0 1;
#X obj 111 166 hsl 128 15 0 127 0 0 empty empty scale -2 -8 0 10 -262144
-1 -1 0 1;
#X symbolatom 108 187 15 0 0 0 - - -, f 15;
#X obj 322 92 text size \$0-scales;
#X obj 179 70 r \$0-notelength;
#X obj 250 333 expr $f1 / 127 * $i2;
#X obj 250 355 int;
#X obj 206 186 bng 15 250 50 0 empty empty empty 17 7 0 10 -262144
-1 -1;
#X obj 250 375 text get \$0-scales;
#X obj 250 396 list split 1;
#X obj 226 186 tgl 15 0 empty empty empty 17 7 0 10 -262144 -1 -1 0
1;
#X obj 250 311 s \$0-toggle-scale;
#X obj 284 424 s \$0-scale-intervals;
#X obj 269 177 s \$0-root;
#X connect 1 0 4 0;
#X connect 2 0 3 0;
#X connect 5 0 24 0;
#X connect 6 0 7 0;
#X connect 6 0 10 0;
#X connect 7 0 5 0;
#X connect 9 0 8 0;
#X connect 10 0 14 0;
#X connect 10 1 9 0;
#X connect 11 0 1 0;
#X connect 12 0 16 0;
#X connect 14 0 16 1;
#X connect 15 0 0 0;
#X connect 16 0 17 0;
#X connect 17 0 19 0;
#X connect 18 0 10 0;
#X connect 19 0 20 0;
#X connect 20 0 13 0;
#X connect 20 1 23 0;
#X connect 21 0 22 0;
#X coords 0 -1 1 1 150 110 1 100 100;
#X restore 257 213 pd noteset;
#N canvas 0 22 450 300 start-end 1;
#X obj 102 118 hradio 15 1 0 16 empty empty empty 0 -8 0 10 -262144
-1 -1 0;
#X obj 23 149 s \$0-first;
#X obj 102 133 hradio 15 1 0 16 empty empty empty 0 -8 0 10 -262144
-1 -1 15;
#X obj 102 159 s \$0-last;
#X obj 346 34 loadbang;
#X msg 335 69 0;
#X msg 378 122 15;
#X connect 0 0 1 0;
#X connect 2 0 3 0;
#X connect 4 0 5 0;
#X connect 4 0 6 0;
#X connect 5 0 0 0;
#X connect 6 0 2 0;
#X coords 0 -1 1 1 245 50 1 100 100;
#X restore 8 328 pd start-end;
#X obj 257 423 cnv 15 150 45 empty empty kseq 20 12 0 28 -203904 -66577
0;
